<?xml version="1.0" encoding="iso-8859-1"?>
<!-- Uploaded to: SVG Repo, www.svgrepo.com, Generator: SVG Repo Mixer Tools -->
<svg fill="#607d8b" height="20px" width="20px" version="1.1" id="Layer_1" xmlns="http://www.w3.org/2000/svg" xmlns:xlink="http://www.w3.org/1999/xlink" 
	 viewBox="0 0 512 512" xml:space="preserve">
<g>
	<g>
		<path d="M256,0C128.956,0,25.6,103.364,25.6,230.4c0,2.543,0,68.267,0,68.267C25.6,416.299,128.956,512,256,512
			s230.4-95.701,230.4-213.333c0,0,0-65.724,0-68.267C486.4,103.364,383.044,0,256,0z M76.8,375.467v29.491
			c-17.459-24.832-29.005-53.478-32.759-84.284c8.422,19.703,19.533,37.982,32.836,54.417C76.868,375.228,76.8,375.339,76.8,375.467
			z M119.467,449.34c-9.233-7.1-17.783-14.908-25.6-23.322v-32.102c7.979,7.91,16.538,15.24,25.6,21.931V449.34z M162.133,474.863
			c-9.114-4.13-17.869-8.823-26.197-14.063h0.597v-33.459c8.201,4.992,16.768,9.438,25.6,13.389V474.863z M204.8,489.182
			c-8.764-1.997-17.297-4.497-25.6-7.458V447.59c8.32,2.953,16.87,5.419,25.6,7.407V489.182z M247.467,494.737
			c-8.678-0.316-17.22-1.101-25.6-2.347v-34.133c8.397,1.254,16.939,2.014,25.6,2.33V494.737z M290.133,492.39
			c-8.38,1.246-16.922,2.031-25.6,2.347v-34.15c8.661-0.316,17.203-1.075,25.6-2.33V492.39z M332.8,481.724
			c-8.303,2.961-16.836,5.461-25.6,7.458v-34.185c8.73-1.988,17.28-4.454,25.6-7.407V481.724z M349.867,474.863v-34.125
			c8.832-3.959,17.399-8.397,25.6-13.389V460.8h0.597C367.735,466.039,358.98,470.733,349.867,474.863z M418.133,426.018
			c-7.817,8.414-16.367,16.222-25.6,23.322v-33.493c9.062-6.69,17.621-14.012,25.6-21.931V426.018z M435.2,404.958v-29.491
			c0-0.137-0.068-0.247-0.077-0.375c13.303-16.435,24.414-34.714,32.836-54.409C464.205,351.479,452.659,380.134,435.2,404.958z
			 M256,443.085c-117.274,0-212.676-95.403-212.676-212.685S138.726,17.724,256,17.724s212.676,95.411,212.676,212.685
			S373.274,443.085,256,443.085z"/>
	</g>
</g>
<g>
	<g>
		<path d="M256,53.18c-97.724,0-177.237,79.497-177.237,177.22S158.276,407.629,256,407.629S433.237,328.132,433.237,230.4
			S353.724,53.18,256,53.18z M256,389.914c-87.953,0-159.505-71.561-159.505-159.514S168.047,70.895,256,70.895
			S415.505,142.456,415.505,230.4S343.953,389.914,256,389.914z"/>
	</g>
</g>
<g>
	<g>
		<path d="M264.533,223.556v-66.901c30.447,1.408,41.208,10.317,46.652,17.178c2.927,3.703,8.286,4.326,11.989,1.382
			c3.695-2.927,4.309-8.294,1.382-11.981c-11.768-14.831-31.01-22.374-60.015-23.603v-12.339c0-4.719-3.823-8.533-8.533-8.533
			c-4.71,0-8.533,3.814-8.533,8.533v12.527c-37.803,3.439-57.865,26.726-58.206,49.519c-0.333,21.862,17.647,44.655,58.206,48.964
			v65.92c-26.129-0.759-35.081-5.436-47.215-17.911c-3.285-3.379-8.695-3.456-12.066-0.171c-3.379,3.285-3.456,8.695-0.171,12.066
			c16.205,16.674,29.858,22.255,59.443,23.091v12.211c0,4.719,3.823,8.533,8.533,8.533c4.71,0,8.533-3.814,8.533-8.533v-12.561
			c34.492-3.055,60.083-20.796,62.071-44.032C327.398,267.648,324.89,237.303,264.533,223.556z M247.467,221.013
			c-28.484-3.593-41.344-17.775-41.139-31.411c0.222-14.677,14.481-29.542,41.139-32.503V221.013z M309.606,275.465
			c-1.075,12.467-18.074,25.489-45.073,28.271v-62.677C298.957,249.737,310.528,264.627,309.606,275.465z"/>
	</g>
</g>
</svg>