<?xml version="1.0" encoding="iso-8859-1"?>
<!-- Uploaded to: SVG Repo, www.svgrepo.com, Generator: SVG Repo Mixer Tools -->
<svg height="20px" width="20px" version="1.1" id="Layer_1" xmlns="http://www.w3.org/2000/svg" xmlns:xlink="http://www.w3.org/1999/xlink" 
	 viewBox="0 0 512 512" xml:space="preserve">
<path style="fill:#47CEAC;" d="M0,256.006C0,397.402,114.606,512.004,255.996,512C397.394,512.004,512,397.402,512,256.006
	C512.009,114.61,397.394,0,255.996,0C114.606,0,0,114.614,0,256.006z"/>
<path style="fill:#36BB9A;" d="M512,256.005c0-2.719-0.121-5.408-0.205-8.106c-0.137-0.133-0.264-0.272-0.403-0.403
	c-0.491-0.517-96.537-96.57-97.061-97.061c-5.883-6.199-14.01-10.563-24.416-12.873c-11.594-2.579-25.788-2.35-41.507,0.01
	c-0.283-0.286-56.463-56.414-56.97-56.911c-10.722-11.102-22.702-17.29-35.438-17.29c-28.382,0-53.058,30.546-68.252,78.329
	c-48.539-11.046-86.498-6.237-99.522,16.492c-5.334,9.328-6.231,20.567-2.665,33.418c5.082,18.304,19.242,39.055,39.871,59.918
	c0.497,0.511,7.092,7.087,7.597,7.598c0.038,0.039,0.071,0.078,0.11,0.117c-38.323,40.916-55.146,80.75-39.867,104.864
	c1.645,2.602,3.674,4.896,5.924,7.008c0.491,0.517,139.002,139.034,139.526,139.526c0.25,0.264,0.516,0.515,0.773,0.773
	c5.461,0.348,10.951,0.586,16.501,0.586C397.394,512.004,512,397.401,512,256.005z"/>
<g>
	<path style="fill:#F4F6F9;" d="M426.432,312.34c-5.096-18.335-19.277-39.125-39.949-60.021
		c32.83-37.863,46.459-73.93,32.263-96.387c-5.851-9.242-15.555-15.422-28.832-18.369c-17.241-3.836-39.898-1.923-65.431,4.883
		C309.309,94.239,284.528,63.371,256,63.371c-28.382,0-53.058,30.546-68.252,78.329c-48.539-11.046-86.498-6.236-99.522,16.493
		c-5.333,9.327-6.231,20.567-2.665,33.418c5.701,20.535,22.772,44.148,47.655,67.547c-38.38,40.946-55.234,80.818-39.946,104.949
		c5.836,9.229,15.519,15.406,28.782,18.353c5.934,1.321,12.494,1.964,19.596,1.964c14.214,0,30.607-2.634,48.3-7.53
		c15.318,43.974,38.999,71.735,66.052,71.735c29.856,0,55.613-33.798,70.542-85.91c15.564,3.399,30.119,5.315,42.933,5.315
		c26.222,0,45.692-7.246,54.302-22.26C429.113,336.443,430.005,325.195,426.432,312.34z M370.147,151.62
		c5.946,0,11.401,0.525,16.288,1.611c8.959,1.99,15.268,5.789,18.749,11.283c9.285,14.692-1.907,43.805-30.281,76.677
		c-10.945-9.955-23.31-19.824-36.794-29.383c-1.914-19.314-5.057-37.434-9.25-53.927C344.118,153.805,358.134,151.62,370.147,151.62
		z M289.521,313.097c-7.342,4.699-14.729,9.118-22.109,13.291c-13.657-5.895-27.759-12.731-42.204-20.796h0.004
		c-12.846-7.175-25.074-14.812-36.555-22.698c-0.518-8.716-0.88-17.616-0.88-26.891c0-8.658,0.317-16.988,0.77-25.159
		c10.452-8.086,21.706-16.111,33.906-23.919c12.71-8.132,25.554-15.471,38.259-21.986c8.565,4.113,17.238,8.508,26.066,13.439
		c12.646,7.063,24.702,14.571,36.029,22.325c0.894,11.279,1.413,23.028,1.413,35.3c0,11.661-0.496,22.818-1.305,33.585
		C312.609,297.537,301.518,305.421,289.521,313.097z M320.79,311.143c-1.479,11.431-3.398,22.215-5.687,32.282
		c-9.214-2.553-18.851-5.682-28.863-9.424c3.981-2.393,7.962-4.842,11.934-7.383C306.045,321.582,313.515,316.391,320.79,311.143z
		 M249.588,335.923c-16.93,8.596-33.564,15.669-49.264,20.989c-4.405-15.814-7.798-33.83-9.953-53.57
		c8.657,5.591,17.658,11.04,27.011,16.264h0.004C228.213,325.652,238.95,330.977,249.588,335.923z M171.987,270.842
		c-5.406-4.113-10.559-8.262-15.483-12.435c4.809-4.629,9.955-9.281,15.376-13.945c-0.095,3.818-0.156,7.66-0.156,11.541
		C171.725,261.009,171.83,265.943,171.987,270.842z M190.276,209.546c1.89-17.666,4.798-33.888,8.518-48.465
		c13.646,3.874,28.209,9.007,43.455,15.483c-9.47,5.195-18.979,10.783-28.449,16.842C205.6,198.653,197.83,204.068,190.276,209.546z
		 M279.067,176.081c11.831-5.363,23.408-9.936,34.495-13.609c2.89,11.561,5.338,24.032,7.115,37.531
		c-8.364-5.373-17.058-10.607-26.065-15.638C289.412,181.46,284.233,178.732,279.067,176.081z M339.677,232.878
		c8.761,6.651,16.906,13.405,24.366,20.174c-7.233,7.495-15.303,15.098-24.189,22.726c0.277-6.493,0.421-13.088,0.421-19.774
		C340.275,248.158,340.058,240.453,339.677,232.878z M256,79.424c19.562,0,39.885,25.156,53.218,67.586
		c-15.568,5.097-31.948,11.829-48.667,20.041c-19.884-9.143-39.173-16.235-57.345-21.389C216.544,104.047,236.646,79.424,256,79.424
		z M101.029,187.315c-2.379-8.567-1.999-15.68,1.129-21.143c8.5-14.819,39.165-18.518,81.172-9.052
		c-5.077,19.761-8.642,41.885-10.381,65.612c-10.299,8.241-19.824,16.598-28.48,24.989
		C121.655,226.377,105.978,205.136,101.029,187.315z M125.536,366.792c-8.935-1.987-15.23-5.777-18.702-11.271
		c-10.145-16.012,3.997-49.158,38.321-85.663c8.622,7.367,17.978,14.652,27.973,21.77c2.013,25.556,6.156,49.196,12.019,69.977
		C161.499,368.137,140.734,370.181,125.536,366.792z M256,432.576c-18.435,0-37.589-22.24-50.895-60.31
		c20.145-6.771,41.609-16.252,63.335-28.084c14.747,6.048,29.044,10.967,42.69,14.724C297.886,405.091,276.497,432.576,256,432.576z
		 M409.85,337.798c-8.387,14.599-38.262,18.425-79.323,9.478c3.529-15.302,6.175-31.89,7.814-49.434
		c13.919-11.089,26.418-22.404,37.309-33.696c18.385,18.634,30.977,36.877,35.317,52.493
		C413.349,325.214,412.97,332.335,409.85,337.798z"/>
	<path style="fill:#F4F6F9;" d="M256.007,216.077c-22.131,0-40.139,18.009-40.139,40.147c0,22.119,18.009,40.115,40.139,40.115
		c22.123,0,40.123-17.996,40.123-40.115C296.131,234.084,278.131,216.077,256.007,216.077z M256.007,280.286
		c-13.282,0-24.086-10.793-24.086-24.063c0-13.285,10.805-24.094,24.086-24.094c13.274,0,24.07,10.809,24.07,24.094
		C280.079,269.493,269.282,280.286,256.007,280.286z"/>
</g>
</svg>