<?xml version="1.0" encoding="UTF-8"?>
<svg width="130px" height="42px" viewBox="0 0 130 42" version="1.1" xmlns="http://www.w3.org/2000/svg" xmlns:xlink="http://www.w3.org/1999/xlink">
    <title>Artboard</title>
    <g id="Artboard" stroke="none" stroke-width="1" fill="none" fill-rule="evenodd">
        <g id="Group" transform="translate(0.000000, 1.000000)" fill="#FFFFFF" fill-rule="nonzero">
            <path d="M23.6357,22.5407366 C20.5866,24.4403366 16.5053,25.4187366 12.3719,25.2097366 C8.89667,25.0387366 6.04641,23.7850366 4.32299,21.7239366 C2.8079,19.8812366 2.2208,17.4496366 2.61851,14.6524366 C2.7533,13.7228366 3.02955,12.8194366 3.4376,11.9739366 L3.49442,11.8552366 C4.92495,9.09273661 7.04794,6.75143661 9.65446,5.06173661 C12.261,3.37213661 15.2612,2.39233661 18.3598,2.21893661 C21.4585,2.04547661 24.5487,2.68433661 27.3265,4.07253661 C30.1043,5.46083661 32.4738,7.55063661 34.2019,10.1363366 C35.93,12.7220366 36.9571,15.7144366 37.1821,18.8192366 C37.4071,21.9239366 36.8222,25.0340366 35.4851,27.8431366 C34.148,30.6523366 32.1047,33.0639366 29.5563,34.8405366 C27.0079,36.6171366 24.0422,37.6975366 20.9511,37.9753366 L21.1405,40.1552366 C24.611,39.8451366 27.9411,38.6335366 30.8028,36.6398366 C33.6644,34.6460366 35.9589,31.9389366 37.4601,28.7850366 C38.9613,25.6312366 39.6175,22.1394366 39.3641,18.6538366 C39.1106,15.1682366 37.9562,11.8089366 36.0146,8.90703661 C34.0731,6.00503661 31.4113,3.66053661 28.2915,2.10433661 C25.1717,0.548176614 21.7016,-0.165913386 18.223,0.0324266145 C14.7443,0.230766614 11.3772,1.33468661 8.45334,3.23543661 C5.52947,5.13613661 3.1497,7.76813661 1.54848,10.8721366 L1.47272,11.0288366 C0.966523,12.0781366 0.624764,13.1994366 0.459503,14.3532366 C-0.0139638,17.7631366 0.719905,20.7978366 2.63744,23.1343366 C4.7349,25.6894366 8.1486,27.2091366 12.2441,27.4085366 C17.2297,27.6603366 22.1869,26.2973366 25.7047,23.7897366 L23.6357,22.5407366 Z" id="Path"></path>
            <path d="M27.8067,25.0195366 C25.8229,26.7482366 21.2113,29.8826366 13.5601,30.3100366 C4.99507,30.7849366 1.42513,27.9924366 1.39199,27.9639366 L0.700728,28.8188366 L1.39672,27.9782366 L0,29.6594366 C0.151509,29.7876366 3.57466,32.5611366 11.6141,32.5611366 C12.2722,32.5611366 12.9635,32.5611366 13.6832,32.5041366 C22.93,31.9865366 28.0103,27.9402366 29.781,26.2115366 L27.8067,25.0195366 Z" id="Path"></path>
            <path d="M31.5191,27.2807366 C30.346,28.8274366 28.9021,30.1470366 27.2579,31.1750366 C21.4627,34.9268366 14.0908,35.4112366 8.93,35.1500366 L8.82111,37.3393366 C9.68755,37.3821366 10.5209,37.4011366 11.3305,37.4011366 C25.8848,37.4011366 31.7653,30.7523366 33.4082,28.3777366 L31.5143,27.2617366" id="Path"></path>
            <path d="M30.965,18.9908366 C31.9298,18.9908366 32.712,18.2063366 32.712,17.2386366 C32.712,16.2708366 31.9298,15.4863366 30.965,15.4863366 C30.0002,15.4863366 29.2181,16.2708366 29.2181,17.2386366 C29.2181,18.2063366 30.0002,18.9908366 30.965,18.9908366 Z" id="Path"></path>
            <polygon id="Path" points="50.2367 32.6892366 47.1005 23.2724366 48.1104 23.2724366 51.0474 32.1376366 50.5424 32.1376366 53.5724 23.2724366 54.476 23.2724366 57.4661 32.1376366 56.9877 32.1376366 59.9512 23.2724366 60.8948 23.2724366 57.7585 32.6892366 56.7219 32.6892366 53.8647 24.2814366 54.1305 24.2814366 51.26 32.6892366"></polygon>
            <path d="M66.2398,32.6892366 L70.4924,23.2724366 L71.4625,23.2724366 L75.7151,32.6892366 L74.6785,32.6892366 L70.7715,23.8509366 L71.1701,23.8509366 L67.2631,32.6892366 L66.2398,32.6892366 Z M67.9143,30.1736366 L68.2066,29.3664366 L73.6154,29.3664366 L73.9077,30.1736366 L67.9143,30.1736366 Z" id="Shape"></path>
            <polygon id="Path" points="82.5698 32.6892366 82.5698 23.2724366 83.5532 23.2724366 83.5532 31.8282366 88.7627 31.8282366 88.7627 32.6892366"></polygon>
            <polygon id="Path" points="95.7109 32.6892366 95.7109 23.2724366 96.6944 23.2724366 96.6944 31.8282366 101.904 31.8282366 101.904 32.6892366"></polygon>
            <path d="M109.73,27.4831366 L114.647,27.4831366 L114.647,28.3306366 L109.73,28.3306366 L109.73,27.4831366 Z M109.836,31.8282366 L115.431,31.8282366 L115.431,32.6892366 L108.852,32.6892366 L108.852,23.2724366 L115.231,23.2724366 L115.231,24.1334366 L109.836,24.1334366 L109.836,31.8282366 Z" id="Shape"></path>
            <polygon id="Path" points="124.865 32.6892366 124.865 24.1334366 121.596 24.1334366 121.596 23.2724366 129.118 23.2724366 129.118 24.1334366 125.849 24.1334366 125.849 32.6892366"></polygon>
            <polygon id="Path" points="49.074 16.7146366 53.1405 10.9973366 53.1272 12.8941366 49.2202 7.29783661 52.1837 7.29783661 54.6821 10.9435366 53.4196 10.9569366 55.8781 7.29783661 58.722 7.29783661 54.815 12.7864366 54.815 10.9031366 58.9347 16.7146366 55.9047 16.7146366 53.3664 12.8806366 54.5758 12.8806366 52.0774 16.7146366"></polygon>
            <path d="M68.5405,16.7146366 L68.5405,7.29783661 L72.9393,7.29783661 C73.9669,7.29783661 74.8706,7.49063661 75.6503,7.87633661 C76.4298,8.26203661 77.0368,8.80453661 77.4709,9.50403661 C77.9139,10.2036366 78.1354,11.0376366 78.1354,12.0062366 C78.1354,12.9657366 77.9139,13.7998366 77.4709,14.5084366 C77.0368,15.2079366 76.4298,15.7504366 75.6503,16.1361366 C74.8706,16.5218366 73.9669,16.7146366 72.9393,16.7146366 L68.5405,16.7146366 Z M71.1718,14.5891366 L72.833,14.5891366 C73.3645,14.5891366 73.8251,14.4905366 74.2151,14.2931366 C74.6137,14.0869366 74.9238,13.7910366 75.1453,13.4053366 C75.3667,13.0107366 75.4776,12.5443366 75.4776,12.0062366 C75.4776,11.4591366 75.3667,10.9928366 75.1453,10.6071366 C74.9238,10.2214366 74.6137,9.93013661 74.2151,9.73273661 C73.8251,9.52653661 73.3645,9.42333661 72.833,9.42333661 L71.1718,9.42333661 L71.1718,14.5891366 Z" id="Shape"></path>
            <path d="M90.9355,10.9435366 L95.2545,10.9435366 L95.2545,12.9344366 L90.9355,12.9344366 L90.9355,10.9435366 Z M91.1216,14.6563366 L95.9855,14.6563366 L95.9855,16.7146366 L88.5168,16.7146366 L88.5168,7.29783661 L95.8127,7.29783661 L95.8127,9.35613661 L91.1216,9.35613661 L91.1216,14.6563366 Z" id="Shape"></path>
            <path d="M108.888,11.4277366 L113.18,11.4277366 L113.18,13.4860366 L108.888,13.4860366 L108.888,11.4277366 Z M109.074,16.7146366 L106.442,16.7146366 L106.442,7.29783661 L113.738,7.29783661 L113.738,9.35613661 L109.074,9.35613661 L109.074,16.7146366 Z" id="Shape"></path>
            <polygon id="Path" points="123.965 16.7146366 123.965 7.29783661 126.597 7.29783661 126.597 16.7146366"></polygon>
        </g>
    </g>
</svg>