<svg width="81" height="23" viewBox="0 0 81 23" fill="none" xmlns="http://www.w3.org/2000/svg">
<path d="M34.4188 14.5668H39.3087V16.9267H31.4424V2.08691H34.4188V14.5668Z" fill="#EEEEEE"/>
<path d="M52.1497 10.7824C52.1497 11.2076 52.1214 11.5903 52.0647 11.9305H43.4542C43.5251 12.7809 43.8227 13.4471 44.3471 13.929C44.8716 14.4109 45.5165 14.6518 46.2818 14.6518C47.3874 14.6518 48.174 14.177 48.6417 13.2274H51.8521C51.5119 14.3613 50.8599 15.2967 49.8961 16.0338C48.9323 16.7566 47.7488 17.118 46.3456 17.118C45.2117 17.118 44.1912 16.87 43.2841 16.3739C42.3912 15.8637 41.6896 15.1479 41.1793 14.2266C40.6833 13.3053 40.4352 12.2423 40.4352 11.0376C40.4352 9.81862 40.6833 8.74852 41.1793 7.82723C41.6754 6.90594 42.3699 6.19726 43.2629 5.70119C44.1558 5.20511 45.1834 4.95707 46.3456 4.95707C47.4653 4.95707 48.4646 5.19802 49.3433 5.67993C50.2363 6.16183 50.9237 6.84925 51.4056 7.74219C51.9017 8.62095 52.1497 9.63437 52.1497 10.7824ZM49.0669 9.93201C49.0528 9.16664 48.7764 8.55717 48.2378 8.10362C47.6992 7.63589 47.0401 7.40202 46.2606 7.40202C45.5235 7.40202 44.8999 7.6288 44.3897 8.08236C43.8936 8.52174 43.5888 9.13829 43.4755 9.93201H49.0669Z" fill="#EEEEEE"/>
<path d="M53.5569 10.995C53.5569 9.80445 53.7907 8.74852 54.2585 7.82723C54.7404 6.90594 55.3853 6.19726 56.1932 5.70119C57.0152 5.20511 57.9294 4.95707 58.9358 4.95707C59.8145 4.95707 60.5799 5.13424 61.2319 5.48858C61.8981 5.84292 62.4296 6.28939 62.8264 6.82799V5.14842H65.8242V16.9267H62.8264V15.2046C62.4437 15.7574 61.9122 16.218 61.2319 16.5865C60.5657 16.9409 59.7933 17.118 58.9145 17.118C57.9224 17.118 57.0152 16.8629 56.1932 16.3527C55.3853 15.8424 54.7404 15.1266 54.2585 14.2054C53.7907 13.2699 53.5569 12.1998 53.5569 10.995ZM62.8264 11.0376C62.8264 10.3147 62.6847 9.69815 62.4012 9.1879C62.1178 8.66347 61.7351 8.26661 61.2532 7.99731C60.7713 7.71384 60.2539 7.5721 59.7012 7.5721C59.1484 7.5721 58.6381 7.70675 58.1704 7.97605C57.7027 8.24535 57.32 8.64221 57.0223 9.16664C56.7389 9.67689 56.5971 10.2864 56.5971 10.995C56.5971 11.7037 56.7389 12.3274 57.0223 12.866C57.32 13.3904 57.7027 13.7943 58.1704 14.0778C58.6523 14.3613 59.1626 14.503 59.7012 14.503C60.2539 14.503 60.7713 14.3684 61.2532 14.0991C61.7351 13.8156 62.1178 13.4187 62.4012 12.9085C62.6847 12.384 62.8264 11.7604 62.8264 11.0376Z" fill="#EEEEEE"/>
<path d="M71.7076 6.84925C72.0903 6.31065 72.6148 5.86418 73.2809 5.50984C73.9613 5.14133 74.7337 4.95707 75.5983 4.95707C76.6046 4.95707 77.5117 5.20511 78.3196 5.70119C79.1417 6.19726 79.7866 6.90594 80.2543 7.82723C80.7362 8.73434 80.9772 9.79028 80.9772 10.995C80.9772 12.1998 80.7362 13.2699 80.2543 14.2054C79.7866 15.1266 79.1417 15.8424 78.3196 16.3527C77.5117 16.8629 76.6046 17.118 75.5983 17.118C74.7337 17.118 73.9683 16.9409 73.3022 16.5865C72.6502 16.2322 72.1187 15.7857 71.7076 15.2471V22.5394H68.7312V5.14842H71.7076V6.84925ZM77.937 10.995C77.937 10.2864 77.7881 9.67689 77.4905 9.16664C77.207 8.64221 76.8243 8.24535 76.3424 7.97605C75.8747 7.70675 75.3644 7.5721 74.8117 7.5721C74.2731 7.5721 73.7628 7.71384 73.2809 7.99731C72.8132 8.26661 72.4305 8.66347 72.1329 9.1879C71.8494 9.71232 71.7076 10.3289 71.7076 11.0376C71.7076 11.7462 71.8494 12.3628 72.1329 12.8872C72.4305 13.4116 72.8132 13.8156 73.2809 14.0991C73.7628 14.3684 74.2731 14.503 74.8117 14.503C75.3644 14.503 75.8747 14.3613 76.3424 14.0778C76.8243 13.7943 77.207 13.3904 77.4905 12.866C77.7881 12.3415 77.937 11.7179 77.937 10.995Z" fill="#EEEEEE"/>
<g clip-path="url(#clip0_20_11037)">
<path d="M23.54 12.1816C23.54 15.9209 18.9765 17.4404 13.3102 17.4404C7.64392 17.4404 3.01392 15.9209 3.01392 12.1816C3.01392 8.4423 7.6107 5.4165 13.277 5.4165C18.9433 5.4165 23.54 8.44891 23.54 12.1816Z" fill="#4BAF74"/>
<path d="M22.504 4.02945C22.504 2.0607 20.8964 0.461914 18.9169 0.461914C17.8009 0.461914 16.8045 0.970618 16.1468 1.7634C15.2501 1.56521 14.2935 1.4529 13.3037 1.4529C12.314 1.4529 11.3574 1.5586 10.4606 1.7634C9.79636 0.970618 8.79995 0.461914 7.69061 0.461914C5.71106 0.461914 4.10352 2.0607 4.10352 4.02945C4.10352 4.67689 4.27623 5.27808 4.57515 5.8C4.28951 6.4078 4.13673 7.05524 4.13673 7.72911C4.13673 11.1975 8.24195 14.0053 13.3037 14.0053C18.3655 14.0053 22.4707 11.1975 22.4707 7.72911C22.4707 7.05524 22.318 6.4078 22.0323 5.8C22.3312 5.27808 22.504 4.67689 22.504 4.02945Z" fill="#4BC174"/>
<path d="M7.405 6.01559C8.61567 6.01559 9.59711 5.0395 9.59711 3.83543C9.59711 2.63136 8.61567 1.65527 7.405 1.65527C6.19433 1.65527 5.21289 2.63136 5.21289 3.83543C5.21289 5.0395 6.19433 6.01559 7.405 6.01559Z" fill="#EEEEEE"/>
<path d="M19.0964 6.01559C20.3071 6.01559 21.2885 5.0395 21.2885 3.83543C21.2885 2.63136 20.3071 1.65527 19.0964 1.65527C17.8857 1.65527 16.9043 2.63136 16.9043 3.83543C16.9043 5.0395 17.8857 6.01559 19.0964 6.01559Z" fill="#EEEEEE"/>
<path d="M6.22976 17.1736C6.70139 17.1736 7.07339 16.764 7.02025 16.3016C6.82761 14.6631 6.01055 11.1154 2.41681 8.98152C-2.36597 6.14071 1.4204 15.9184 1.4204 15.9184L0.430628 16.4866C0.09849 16.6781 0.237988 17.1736 0.616625 17.1736H6.22976Z" fill="#4BC174"/>
<path d="M20.5081 17.1736C20.083 17.1736 19.7508 16.764 19.7973 16.3016C19.9634 14.6698 20.7074 11.1154 23.949 8.98152C28.2735 6.14071 24.8525 15.9184 24.8525 15.9184L25.7492 16.4866C26.0482 16.6781 25.9219 17.1736 25.5832 17.1736H20.5081Z" fill="#4BC174"/>
<path d="M7.40247 4.23029C7.62259 4.23029 7.80104 4.05281 7.80104 3.83389C7.80104 3.61497 7.62259 3.4375 7.40247 3.4375C7.18235 3.4375 7.00391 3.61497 7.00391 3.83389C7.00391 4.05281 7.18235 4.23029 7.40247 4.23029Z" fill="#0D0D0D"/>
<path d="M19.09 4.23029C19.3101 4.23029 19.4885 4.05281 19.4885 3.83389C19.4885 3.61497 19.3101 3.4375 19.09 3.4375C18.8699 3.4375 18.6914 3.61497 18.6914 3.83389C18.6914 4.05281 18.8699 4.23029 19.09 4.23029Z" fill="#0D0D0D"/>
</g>
<defs>
<clipPath id="clip0_20_11037">
<rect width="26.1326" height="16.9788" fill="white" transform="translate(0 0.460938)"/>
</clipPath>
</defs>
</svg>
